<svg xmlns="http://www.w3.org/2000/svg" width="410" height="404" viewBox="0 0 410 404">
  <defs>
    <linearGradient id="a" x1="0%" x2="100%" y1="0%" y2="0%">
      <stop offset="0%" stop-color="#41d1ff" />
      <stop offset="100%" stop-color="#bd34fe" />
    </linearGradient>
    <linearGradient id="b" x1="0%" x2="100%" y1="0%" y2="0%">
      <stop offset="0%" stop-color="#ffea83" />
      <stop offset="8.333%" stop-color="#ffdd35" />
      <stop offset="100%" stop-color="#ffa800" />
    </linearGradient>
  </defs>
  <g fill="none" fill-rule="evenodd">
    <path
      fill="url(#a)"
      d="M255.153 9.289c-5.613-12.473-22.693-12.465-28.295.016l-24.616 54.549c-1.875 4.154-6.05 6.877-10.61 6.861L81.41 70.341c-13.915-.049-19.508 17.79-7.985 25.847l46.012 32.037a11.467 11.467 0 0 1 4.104 12.686l-18.869 56.54c-4.33 12.998 10.232 24.17 21.436 16.447l46.73-31.789a11.467 11.467 0 0 1 12.744-.041l47.577 32.798c11.172 7.692 25.724-3.476 21.45-16.48l-18.632-56.49a11.467 11.467 0 0 1 4.122-12.7l45.716-31.986c11.497-8.05 6.902-25.92-7.008-25.88l-109.799.33c-4.546.014-8.7-2.694-10.567-6.83L255.153 9.29Z"
    />
    <path
      fill="url(#b)"
      d="M202.42 226.312c-1.889-4.154-6.575-6.71-11.197-6.08l-99.407 13.5c-10.306 1.4-13.663 14.626-5.332 20.826l23.425 17.383a11.467 11.467 0 0 1 4.043 11.793l-10.89 43.736c-2.701 10.847 9.205 19.501 18.89 13.7l26.774-15.97a11.467 11.467 0 0 1 11.842-.09l33.034 19.22c9.735 5.665 21.612-2.84 18.935-13.71l-10.655-43.655a11.467 11.467 0 0 1 4.07-11.83l23.195-17.182c8.32-6.159 4.927-19.383-5.372-20.792l-99.226-13.8c-4.624-.644-8.63-3.774-10.52-8Z"
      transform="translate(69 19)"
    />
  </g>
</svg>
